<?xml version="1.0" encoding="utf-8"?>
<!-- Generator: Adobe Illustrator 21.0.2, SVG Export Plug-In . SVG Version: 6.00 Build 0)  -->
<svg version="1.1" id="Layer_1" xmlns="http://www.w3.org/2000/svg" xmlns:xlink="http://www.w3.org/1999/xlink" x="0px" y="0px"
	 viewBox="0 0 950 5600" style="enable-background:new 0 0 950 5600;" xml:space="preserve">
<style type="text/css">
	.st0{fill:#FFFFFF;}
	.st1{fill:#DA2F28;}
	.st2{clip-path:url(#SVGID_2_);}
	.st3{fill:#D34042;}
	.st4{clip-path:url(#SVGID_4_);}
	.st5{fill:#A62C2E;}
	.st6{fill:#E64543;}
	.st7{clip-path:url(#SVGID_6_);}
	.st8{clip-path:url(#SVGID_8_);}
	.st9{clip-path:url(#SVGID_10_);}
</style>
<g>
	<defs>
		<rect id="SVGID_9_" width="950" height="5600"/>
	</defs>
	<clipPath id="SVGID_2_">
		<use xlink:href="#SVGID_9_"  style="overflow:visible;"/>
	</clipPath>
	<g class="st2">
		<polygon class="st5" points="279.1,-26.4 469,174 1020,88 1020.1,-25.6 		"/>
		<polygon class="st1" points="971,-26 575,-26 732.1,307 971,208 		"/>
		<polygon class="st1" points="984,1163 834,1832 967,3052 		"/>
		<polygon class="st1" points="968,606 746,905 984,1120 		"/>
		<polygon class="st6" points="814,-26 950,1383 950,-26 		"/>
		<polygon class="st5" points="968,750 808,1397 968,1577 		"/>
		<polygon class="st3" points="984,1865.1 673,2547 968.5,2888.8 		"/>
		<polygon class="st1" points="984,2107.5 718,3027 984,4102 		"/>
		<polygon class="st6" points="969,2687 669,3261 971,3955 		"/>
		<polygon class="st5" points="984,2990.8 803,4653 984,5036 		"/>
		<polygon class="st5" points="119.1,5636 509,5435.6 1020,5521.6 1020.1,5635.3 		"/>
		<polygon class="st6" points="971,5636 575,5636 732.1,5263 971,5402 		"/>
		<polygon class="st1" points="1020,4336 808,4943.4 971,5636 1020,5636 		"/>
	</g>
</g>
</svg>
